<svg xmlns="http://www.w3.org/2000/svg" width="1400" height="1200" viewBox="0 0 1400 1200" fill="none">
  <defs>
    <linearGradient id="brainBaseGrad" x1="160" y1="160" x2="1220" y2="1050" gradientUnits="userSpaceOnUse">
      <stop offset="0%" stop-color="#5E8DEB"/>
      <stop offset="40%" stop-color="#4F7DEB"/>
      <stop offset="70%" stop-color="#5AA8F0"/>
      <stop offset="100%" stop-color="#63C7F6"/>
    </linearGradient>
    <radialGradient id="warmGlow" cx="0" cy="0" r="1" gradientUnits="userSpaceOnUse" gradientTransform="translate(450 180) rotate(50) scale(250 210)">
      <stop offset="0%" stop-color="#FFD95A" stop-opacity="0.85"/>
      <stop offset="70%" stop-color="#FFD95A" stop-opacity="0"/>
    </radialGradient>
    <filter id="softShadow" x="-10%" y="-10%" width="120%" height="130%">
      <feDropShadow dx="0" dy="24" stdDeviation="18" flood-color="#5A4AA8" flood-opacity="0.14"/>
    </filter>
    <clipPath id="brainClip"><path d="M 701.4,1176.5 L 692.9,1175.9 L 684.4,1174.0 L 675.9,1171.2 L 667.3,1167.8 L 658.8,1164.1 L 650.2,1160.4 L 641.6,1156.9 L 633.0,1154.0 L 624.4,1151.6 L 615.7,1149.7 L 606.9,1148.1 L 598.1,1146.9 L 589.1,1145.9 L 580.1,1145.2 L 571.0,1144.6 L 561.8,1144.1 L 552.5,1143.7 L 543.2,1143.3 L 533.9,1142.9 L 524.5,1142.3 L 515.2,1141.6 L 505.9,1140.7 L 496.7,1139.5 L 487.5,1138.0 L 478.4,1136.1 L 469.5,1133.7 L 460.6,1130.9 L 451.9,1127.6 L 443.3,1123.7 L 434.9,1119.3 L 426.8,1114.5 L 418.8,1109.2 L 411.2,1103.6 L 403.9,1097.6 L 396.9,1091.3 L 390.2,1084.8 L 383.7,1078.1 L 377.4,1071.4 L 371.2,1064.5 L 365.0,1057.7 L 358.9,1051.0 L 352.8,1044.4 L 346.5,1038.0 L 340.0,1031.9 L 333.3,1026.1 L 326.2,1020.6 L 318.9,1015.4 L 311.3,1010.3 L 303.6,1005.4 L 295.7,1000.5 L 287.9,995.5 L 280.0,990.4 L 272.1,985.1 L 264.3,979.7 L 256.7,974.1 L 249.2,968.3 L 241.9,962.3 L 234.8,956.1 L 228.0,949.7 L 221.5,943.0 L 215.3,936.0 L 209.5,928.8 L 204.2,921.3 L 199.2,913.5 L 194.6,905.4 L 190.4,897.2 L 186.4,888.8 L 182.6,880.3 L 179.0,871.7 L 175.5,863.1 L 172.1,854.4 L 168.7,845.8 L 165.4,837.2 L 161.9,828.7 L 158.4,820.3 L 154.7,812.1 L 150.8,804.0 L 146.6,796.0 L 142.1,788.1 L 137.5,780.2 L 132.7,772.3 L 127.8,764.4 L 123.0,756.4 L 118.3,748.3 L 113.8,740.0 L 109.7,731.6 L 105.9,723.0 L 102.6,714.3 L 99.8,705.4 L 97.4,696.3 L 95.6,687.2 L 94.4,678.1 L 93.6,668.8 L 93.4,659.6 L 93.6,650.3 L 94.0,641.1 L 94.7,631.8 L 95.5,622.6 L 96.3,613.4 L 97.2,604.3 L 97.9,595.2 L 98.6,586.1 L 99.1,577.0 L 99.4,567.8 L 99.4,558.7 L 99.1,549.4 L 98.5,540.1 L 97.9,530.7 L 97.2,521.3 L 96.6,511.9 L 96.3,502.6 L 96.5,493.3 L 97.1,484.1 L 98.2,475.0 L 99.8,465.9 L 101.9,457.0 L 104.3,448.1 L 107.2,439.3 L 110.3,430.6 L 113.6,421.9 L 117.3,413.3 L 121.0,404.8 L 124.9,396.4 L 129.0,388.0 L 133.0,379.7 L 137.1,371.5 L 141.1,363.2 L 145.1,354.9 L 148.9,346.6 L 152.6,338.2 L 156.1,329.6 L 159.4,320.9 L 162.7,312.1 L 166.0,303.4 L 169.5,294.7 L 173.3,286.3 L 177.6,278.1 L 182.2,270.2 L 187.4,262.6 L 192.9,255.3 L 198.8,248.2 L 205.0,241.5 L 211.6,235.0 L 218.5,228.7 L 225.5,222.8 L 232.9,217.0 L 240.4,211.5 L 248.0,206.3 L 255.8,201.2 L 263.7,196.3 L 271.6,191.4 L 279.5,186.4 L 287.3,181.3 L 295.0,176.1 L 302.6,170.6 L 310.1,164.9 L 317.6,159.3 L 325.2,153.8 L 332.8,148.5 L 340.6,143.5 L 348.6,139.0 L 356.8,134.8 L 365.2,131.0 L 373.7,127.5 L 382.3,124.3 L 391.0,121.4 L 399.8,118.7 L 408.7,116.3 L 417.6,114.1 L 426.6,112.1 L 435.6,110.2 L 444.6,108.5 L 453.6,106.8 L 462.5,105.2 L 471.5,103.5 L 480.4,101.6 L 489.3,99.4 L 498.2,97.0 L 507.1,94.2 L 516.0,91.3 L 525.0,88.4 L 533.9,85.6 L 542.9,83.0 L 552.0,80.8 L 561.1,79.1 L 570.2,78.0 L 579.3,77.6 L 588.5,77.8 L 597.7,78.5 L 607.0,79.6 L 616.2,80.9 L 625.5,82.6 L 634.7,84.3 L 644.0,86.1 L 653.2,87.9 L 662.4,89.5 L 671.5,90.9 L 680.7,92.1 L 689.7,92.8 L 698.8,93.0 L 707.7,92.8 L 716.7,92.1 L 725.6,91.1 L 734.6,89.8 L 743.5,88.3 L 752.6,86.6 L 761.7,84.9 L 770.9,83.3 L 780.1,81.7 L 789.4,80.3 L 798.7,79.2 L 808.0,78.5 L 817.3,78.1 L 826.6,78.4 L 835.8,79.2 L 844.9,80.6 L 854.0,82.5 L 863.0,84.8 L 871.9,87.3 L 880.8,90.1 L 889.6,93.0 L 898.4,95.9 L 907.2,98.6 L 915.9,101.2 L 924.8,103.6 L 933.6,105.6 L 942.6,107.5 L 951.6,109.1 L 960.7,110.5 L 969.9,112.0 L 979.0,113.4 L 988.1,115.0 L 997.2,116.9 L 1006.1,119.1 L 1014.9,121.7 L 1023.5,124.9 L 1032.0,128.6 L 1040.3,132.7 L 1048.4,137.2 L 1056.3,142.1 L 1064.2,147.2 L 1071.8,152.5 L 1079.4,158.0 L 1087.0,163.5 L 1094.5,169.0 L 1102.0,174.4 L 1109.7,179.7 L 1117.4,184.8 L 1125.2,189.8 L 1133.1,194.7 L 1141.0,199.6 L 1148.8,204.6 L 1156.7,209.6 L 1164.4,214.9 L 1172.0,220.3 L 1179.3,226.0 L 1186.4,232.0 L 1193.2,238.3 L 1199.5,245.0 L 1205.5,252.1 L 1210.9,259.6 L 1216.0,267.4 L 1220.7,275.4 L 1224.9,283.6 L 1228.8,292.1 L 1232.4,300.7 L 1235.7,309.3 L 1239.0,318.0 L 1242.3,326.6 L 1245.6,335.2 L 1249.1,343.6 L 1252.8,352.0 L 1256.7,360.2 L 1260.7,368.5 L 1264.8,376.6 L 1269.0,384.8 L 1273.3,393.0 L 1277.6,401.2 L 1281.8,409.5 L 1285.8,417.9 L 1289.4,426.5 L 1292.7,435.1 L 1295.6,444.0 L 1297.9,452.9 L 1299.8,462.0 L 1301.3,471.2 L 1302.3,480.5 L 1302.9,489.8 L 1303.1,499.1 L 1303.0,508.4 L 1302.7,517.8 L 1302.2,527.1 L 1301.7,536.4 L 1301.2,545.7 L 1300.9,554.9 L 1300.8,564.1 L 1301.0,573.3 L 1301.4,582.4 L 1302.0,591.6 L 1302.7,600.7 L 1303.5,609.9 L 1304.3,619.2 L 1305.1,628.4 L 1305.8,637.7 L 1306.4,647.0 L 1306.6,656.3 L 1306.5,665.6 L 1306.0,674.8 L 1304.9,684.0 L 1303.3,693.1 L 1301.1,702.1 L 1298.4,711.0 L 1295.3,719.8 L 1291.7,728.5 L 1287.7,736.9 L 1283.3,745.2 L 1278.7,753.4 L 1274.0,761.5 L 1269.2,769.4 L 1264.4,777.4 L 1259.8,785.4 L 1255.4,793.3 L 1251.1,801.4 L 1247.1,809.5 L 1243.1,817.7 L 1239.4,826.0 L 1235.8,834.5 L 1232.3,843.0 L 1228.8,851.7 L 1225.4,860.3 L 1221.9,869.0 L 1218.4,877.6 L 1214.7,886.1 L 1210.8,894.6 L 1206.6,902.9 L 1202.2,911.0 L 1197.4,918.8 L 1192.3,926.5 L 1186.7,933.8 L 1180.7,940.9 L 1174.3,947.6 L 1167.6,954.2 L 1160.6,960.5 L 1153.3,966.5 L 1145.8,972.3 L 1138.2,978.0 L 1130.4,983.4 L 1122.6,988.7 L 1114.7,993.8 L 1106.8,998.7 L 1098.9,1003.6 L 1091.2,1008.5 L 1083.5,1013.5 L 1076.1,1018.7 L 1069.0,1024.1 L 1062.1,1029.8 L 1055.5,1036.0 L 1049.2,1042.4 L 1043.0,1049.0 L 1036.9,1055.8 L 1030.8,1062.6 L 1024.6,1069.5 L 1018.3,1076.3 L 1011.9,1082.9 L 1005.2,1089.3 L 998.3,1095.5 L 991.1,1101.4 L 983.5,1106.8 L 975.7,1111.9 L 967.6,1116.7 L 959.3,1121.1 L 950.8,1125.1 L 942.2,1128.9 L 933.3,1132.2 L 924.4,1135.3 L 915.4,1137.9 L 906.2,1140.1 L 897.0,1141.9 L 887.7,1143.2 L 878.4,1144.0 L 869.1,1144.4 L 859.8,1144.5 L 850.4,1144.4 L 841.2,1144.2 L 831.9,1144.0 L 822.8,1144.1 L 813.7,1144.4 L 804.7,1145.2 L 795.9,1146.4 L 787.1,1148.1 L 778.4,1150.3 L 769.8,1152.9 L 761.2,1155.9 L 752.6,1159.4 L 744.1,1163.2 L 735.5,1167.1 L 727.0,1170.7 L 718.5,1173.6 L 710.0,1175.7 Z"/></clipPath>
  </defs>

<g id="brain-shadow" opacity="0.55"><path d="M 701.4,1176.5 L 692.9,1175.9 L 684.4,1174.0 L 675.9,1171.2 L 667.3,1167.8 L 658.8,1164.1 L 650.2,1160.4 L 641.6,1156.9 L 633.0,1154.0 L 624.4,1151.6 L 615.7,1149.7 L 606.9,1148.1 L 598.1,1146.9 L 589.1,1145.9 L 580.1,1145.2 L 571.0,1144.6 L 561.8,1144.1 L 552.5,1143.7 L 543.2,1143.3 L 533.9,1142.9 L 524.5,1142.3 L 515.2,1141.6 L 505.9,1140.7 L 496.7,1139.5 L 487.5,1138.0 L 478.4,1136.1 L 469.5,1133.7 L 460.6,1130.9 L 451.9,1127.6 L 443.3,1123.7 L 434.9,1119.3 L 426.8,1114.5 L 418.8,1109.2 L 411.2,1103.6 L 403.9,1097.6 L 396.9,1091.3 L 390.2,1084.8 L 383.7,1078.1 L 377.4,1071.4 L 371.2,1064.5 L 365.0,1057.7 L 358.9,1051.0 L 352.8,1044.4 L 346.5,1038.0 L 340.0,1031.9 L 333.3,1026.1 L 326.2,1020.6 L 318.9,1015.4 L 311.3,1010.3 L 303.6,1005.4 L 295.7,1000.5 L 287.9,995.5 L 280.0,990.4 L 272.1,985.1 L 264.3,979.7 L 256.7,974.1 L 249.2,968.3 L 241.9,962.3 L 234.8,956.1 L 228.0,949.7 L 221.5,943.0 L 215.3,936.0 L 209.5,928.8 L 204.2,921.3 L 199.2,913.5 L 194.6,905.4 L 190.4,897.2 L 186.4,888.8 L 182.6,880.3 L 179.0,871.7 L 175.5,863.1 L 172.1,854.4 L 168.7,845.8 L 165.4,837.2 L 161.9,828.7 L 158.4,820.3 L 154.7,812.1 L 150.8,804.0 L 146.6,796.0 L 142.1,788.1 L 137.5,780.2 L 132.7,772.3 L 127.8,764.4 L 123.0,756.4 L 118.3,748.3 L 113.8,740.0 L 109.7,731.6 L 105.9,723.0 L 102.6,714.3 L 99.8,705.4 L 97.4,696.3 L 95.6,687.2 L 94.4,678.1 L 93.6,668.8 L 93.4,659.6 L 93.6,650.3 L 94.0,641.1 L 94.7,631.8 L 95.5,622.6 L 96.3,613.4 L 97.2,604.3 L 97.9,595.2 L 98.6,586.1 L 99.1,577.0 L 99.4,567.8 L 99.4,558.7 L 99.1,549.4 L 98.5,540.1 L 97.9,530.7 L 97.2,521.3 L 96.6,511.9 L 96.3,502.6 L 96.5,493.3 L 97.1,484.1 L 98.2,475.0 L 99.8,465.9 L 101.9,457.0 L 104.3,448.1 L 107.2,439.3 L 110.3,430.6 L 113.6,421.9 L 117.3,413.3 L 121.0,404.8 L 124.9,396.4 L 129.0,388.0 L 133.0,379.7 L 137.1,371.5 L 141.1,363.2 L 145.1,354.9 L 148.9,346.6 L 152.6,338.2 L 156.1,329.6 L 159.4,320.9 L 162.7,312.1 L 166.0,303.4 L 169.5,294.7 L 173.3,286.3 L 177.6,278.1 L 182.2,270.2 L 187.4,262.6 L 192.9,255.3 L 198.8,248.2 L 205.0,241.5 L 211.6,235.0 L 218.5,228.7 L 225.5,222.8 L 232.9,217.0 L 240.4,211.5 L 248.0,206.3 L 255.8,201.2 L 263.7,196.3 L 271.6,191.4 L 279.5,186.4 L 287.3,181.3 L 295.0,176.1 L 302.6,170.6 L 310.1,164.9 L 317.6,159.3 L 325.2,153.8 L 332.8,148.5 L 340.6,143.5 L 348.6,139.0 L 356.8,134.8 L 365.2,131.0 L 373.7,127.5 L 382.3,124.3 L 391.0,121.4 L 399.8,118.7 L 408.7,116.3 L 417.6,114.1 L 426.6,112.1 L 435.6,110.2 L 444.6,108.5 L 453.6,106.8 L 462.5,105.2 L 471.5,103.5 L 480.4,101.6 L 489.3,99.4 L 498.2,97.0 L 507.1,94.2 L 516.0,91.3 L 525.0,88.4 L 533.9,85.6 L 542.9,83.0 L 552.0,80.8 L 561.1,79.1 L 570.2,78.0 L 579.3,77.6 L 588.5,77.8 L 597.7,78.5 L 607.0,79.6 L 616.2,80.9 L 625.5,82.6 L 634.7,84.3 L 644.0,86.1 L 653.2,87.9 L 662.4,89.5 L 671.5,90.9 L 680.7,92.1 L 689.7,92.8 L 698.8,93.0 L 707.7,92.8 L 716.7,92.1 L 725.6,91.1 L 734.6,89.8 L 743.5,88.3 L 752.6,86.6 L 761.7,84.9 L 770.9,83.3 L 780.1,81.7 L 789.4,80.3 L 798.7,79.2 L 808.0,78.5 L 817.3,78.1 L 826.6,78.4 L 835.8,79.2 L 844.9,80.6 L 854.0,82.5 L 863.0,84.8 L 871.9,87.3 L 880.8,90.1 L 889.6,93.0 L 898.4,95.9 L 907.2,98.6 L 915.9,101.2 L 924.8,103.6 L 933.6,105.6 L 942.6,107.5 L 951.6,109.1 L 960.7,110.5 L 969.9,112.0 L 979.0,113.4 L 988.1,115.0 L 997.2,116.9 L 1006.1,119.1 L 1014.9,121.7 L 1023.5,124.9 L 1032.0,128.6 L 1040.3,132.7 L 1048.4,137.2 L 1056.3,142.1 L 1064.2,147.2 L 1071.8,152.5 L 1079.4,158.0 L 1087.0,163.5 L 1094.5,169.0 L 1102.0,174.4 L 1109.7,179.7 L 1117.4,184.8 L 1125.2,189.8 L 1133.1,194.7 L 1141.0,199.6 L 1148.8,204.6 L 1156.7,209.6 L 1164.4,214.9 L 1172.0,220.3 L 1179.3,226.0 L 1186.4,232.0 L 1193.2,238.3 L 1199.5,245.0 L 1205.5,252.1 L 1210.9,259.6 L 1216.0,267.4 L 1220.7,275.4 L 1224.9,283.6 L 1228.8,292.1 L 1232.4,300.7 L 1235.7,309.3 L 1239.0,318.0 L 1242.3,326.6 L 1245.6,335.2 L 1249.1,343.6 L 1252.8,352.0 L 1256.7,360.2 L 1260.7,368.5 L 1264.8,376.6 L 1269.0,384.8 L 1273.3,393.0 L 1277.6,401.2 L 1281.8,409.5 L 1285.8,417.9 L 1289.4,426.5 L 1292.7,435.1 L 1295.6,444.0 L 1297.9,452.9 L 1299.8,462.0 L 1301.3,471.2 L 1302.3,480.5 L 1302.9,489.8 L 1303.1,499.1 L 1303.0,508.4 L 1302.7,517.8 L 1302.2,527.1 L 1301.7,536.4 L 1301.2,545.7 L 1300.9,554.9 L 1300.8,564.1 L 1301.0,573.3 L 1301.4,582.4 L 1302.0,591.6 L 1302.7,600.7 L 1303.5,609.9 L 1304.3,619.2 L 1305.1,628.4 L 1305.8,637.7 L 1306.4,647.0 L 1306.6,656.3 L 1306.5,665.6 L 1306.0,674.8 L 1304.9,684.0 L 1303.3,693.1 L 1301.1,702.1 L 1298.4,711.0 L 1295.3,719.8 L 1291.7,728.5 L 1287.7,736.9 L 1283.3,745.2 L 1278.7,753.4 L 1274.0,761.5 L 1269.2,769.4 L 1264.4,777.4 L 1259.8,785.4 L 1255.4,793.3 L 1251.1,801.4 L 1247.1,809.5 L 1243.1,817.7 L 1239.4,826.0 L 1235.8,834.5 L 1232.3,843.0 L 1228.8,851.7 L 1225.4,860.3 L 1221.9,869.0 L 1218.4,877.6 L 1214.7,886.1 L 1210.8,894.6 L 1206.6,902.9 L 1202.2,911.0 L 1197.4,918.8 L 1192.3,926.5 L 1186.7,933.8 L 1180.7,940.9 L 1174.3,947.6 L 1167.6,954.2 L 1160.6,960.5 L 1153.3,966.5 L 1145.8,972.3 L 1138.2,978.0 L 1130.4,983.4 L 1122.6,988.7 L 1114.7,993.8 L 1106.8,998.7 L 1098.9,1003.6 L 1091.2,1008.5 L 1083.5,1013.5 L 1076.1,1018.7 L 1069.0,1024.1 L 1062.1,1029.8 L 1055.5,1036.0 L 1049.2,1042.4 L 1043.0,1049.0 L 1036.9,1055.8 L 1030.8,1062.6 L 1024.6,1069.5 L 1018.3,1076.3 L 1011.9,1082.9 L 1005.2,1089.3 L 998.3,1095.5 L 991.1,1101.4 L 983.5,1106.8 L 975.7,1111.9 L 967.6,1116.7 L 959.3,1121.1 L 950.8,1125.1 L 942.2,1128.9 L 933.3,1132.2 L 924.4,1135.3 L 915.4,1137.9 L 906.2,1140.1 L 897.0,1141.9 L 887.7,1143.2 L 878.4,1144.0 L 869.1,1144.4 L 859.8,1144.5 L 850.4,1144.4 L 841.2,1144.2 L 831.9,1144.0 L 822.8,1144.1 L 813.7,1144.4 L 804.7,1145.2 L 795.9,1146.4 L 787.1,1148.1 L 778.4,1150.3 L 769.8,1152.9 L 761.2,1155.9 L 752.6,1159.4 L 744.1,1163.2 L 735.5,1167.1 L 727.0,1170.7 L 718.5,1173.6 L 710.0,1175.7 Z" fill="#D9CEF0" transform="translate(18,18)"/></g>
<g id="brain-shape" filter="url(#softShadow)"><path d="M 701.4,1176.5 L 692.9,1175.9 L 684.4,1174.0 L 675.9,1171.2 L 667.3,1167.8 L 658.8,1164.1 L 650.2,1160.4 L 641.6,1156.9 L 633.0,1154.0 L 624.4,1151.6 L 615.7,1149.7 L 606.9,1148.1 L 598.1,1146.9 L 589.1,1145.9 L 580.1,1145.2 L 571.0,1144.6 L 561.8,1144.1 L 552.5,1143.7 L 543.2,1143.3 L 533.9,1142.9 L 524.5,1142.3 L 515.2,1141.6 L 505.9,1140.7 L 496.7,1139.5 L 487.5,1138.0 L 478.4,1136.1 L 469.5,1133.7 L 460.6,1130.9 L 451.9,1127.6 L 443.3,1123.7 L 434.9,1119.3 L 426.8,1114.5 L 418.8,1109.2 L 411.2,1103.6 L 403.9,1097.6 L 396.9,1091.3 L 390.2,1084.8 L 383.7,1078.1 L 377.4,1071.4 L 371.2,1064.5 L 365.0,1057.7 L 358.9,1051.0 L 352.8,1044.4 L 346.5,1038.0 L 340.0,1031.9 L 333.3,1026.1 L 326.2,1020.6 L 318.9,1015.4 L 311.3,1010.3 L 303.6,1005.4 L 295.7,1000.5 L 287.9,995.5 L 280.0,990.4 L 272.1,985.1 L 264.3,979.7 L 256.7,974.1 L 249.2,968.3 L 241.9,962.3 L 234.8,956.1 L 228.0,949.7 L 221.5,943.0 L 215.3,936.0 L 209.5,928.8 L 204.2,921.3 L 199.2,913.5 L 194.6,905.4 L 190.4,897.2 L 186.4,888.8 L 182.6,880.3 L 179.0,871.7 L 175.5,863.1 L 172.1,854.4 L 168.7,845.8 L 165.4,837.2 L 161.9,828.7 L 158.4,820.3 L 154.7,812.1 L 150.8,804.0 L 146.6,796.0 L 142.1,788.1 L 137.5,780.2 L 132.7,772.3 L 127.8,764.4 L 123.0,756.4 L 118.3,748.3 L 113.8,740.0 L 109.7,731.6 L 105.9,723.0 L 102.6,714.3 L 99.8,705.4 L 97.4,696.3 L 95.6,687.2 L 94.4,678.1 L 93.6,668.8 L 93.4,659.6 L 93.6,650.3 L 94.0,641.1 L 94.7,631.8 L 95.5,622.6 L 96.3,613.4 L 97.2,604.3 L 97.9,595.2 L 98.6,586.1 L 99.1,577.0 L 99.4,567.8 L 99.4,558.7 L 99.1,549.4 L 98.5,540.1 L 97.9,530.7 L 97.2,521.3 L 96.6,511.9 L 96.3,502.6 L 96.5,493.3 L 97.1,484.1 L 98.2,475.0 L 99.8,465.9 L 101.9,457.0 L 104.3,448.1 L 107.2,439.3 L 110.3,430.6 L 113.6,421.9 L 117.3,413.3 L 121.0,404.8 L 124.9,396.4 L 129.0,388.0 L 133.0,379.7 L 137.1,371.5 L 141.1,363.2 L 145.1,354.9 L 148.9,346.6 L 152.6,338.2 L 156.1,329.6 L 159.4,320.9 L 162.7,312.1 L 166.0,303.4 L 169.5,294.7 L 173.3,286.3 L 177.6,278.1 L 182.2,270.2 L 187.4,262.6 L 192.9,255.3 L 198.8,248.2 L 205.0,241.5 L 211.6,235.0 L 218.5,228.7 L 225.5,222.8 L 232.9,217.0 L 240.4,211.5 L 248.0,206.3 L 255.8,201.2 L 263.7,196.3 L 271.6,191.4 L 279.5,186.4 L 287.3,181.3 L 295.0,176.1 L 302.6,170.6 L 310.1,164.9 L 317.6,159.3 L 325.2,153.8 L 332.8,148.5 L 340.6,143.5 L 348.6,139.0 L 356.8,134.8 L 365.2,131.0 L 373.7,127.5 L 382.3,124.3 L 391.0,121.4 L 399.8,118.7 L 408.7,116.3 L 417.6,114.1 L 426.6,112.1 L 435.6,110.2 L 444.6,108.5 L 453.6,106.8 L 462.5,105.2 L 471.5,103.5 L 480.4,101.6 L 489.3,99.4 L 498.2,97.0 L 507.1,94.2 L 516.0,91.3 L 525.0,88.4 L 533.9,85.6 L 542.9,83.0 L 552.0,80.8 L 561.1,79.1 L 570.2,78.0 L 579.3,77.6 L 588.5,77.8 L 597.7,78.5 L 607.0,79.6 L 616.2,80.9 L 625.5,82.6 L 634.7,84.3 L 644.0,86.1 L 653.2,87.9 L 662.4,89.5 L 671.5,90.9 L 680.7,92.1 L 689.7,92.8 L 698.8,93.0 L 707.7,92.8 L 716.7,92.1 L 725.6,91.1 L 734.6,89.8 L 743.5,88.3 L 752.6,86.6 L 761.7,84.9 L 770.9,83.3 L 780.1,81.7 L 789.4,80.3 L 798.7,79.2 L 808.0,78.5 L 817.3,78.1 L 826.6,78.4 L 835.8,79.2 L 844.9,80.6 L 854.0,82.5 L 863.0,84.8 L 871.9,87.3 L 880.8,90.1 L 889.6,93.0 L 898.4,95.9 L 907.2,98.6 L 915.9,101.2 L 924.8,103.6 L 933.6,105.6 L 942.6,107.5 L 951.6,109.1 L 960.7,110.5 L 969.9,112.0 L 979.0,113.4 L 988.1,115.0 L 997.2,116.9 L 1006.1,119.1 L 1014.9,121.7 L 1023.5,124.9 L 1032.0,128.6 L 1040.3,132.7 L 1048.4,137.2 L 1056.3,142.1 L 1064.2,147.2 L 1071.8,152.5 L 1079.4,158.0 L 1087.0,163.5 L 1094.5,169.0 L 1102.0,174.4 L 1109.7,179.7 L 1117.4,184.8 L 1125.2,189.8 L 1133.1,194.7 L 1141.0,199.6 L 1148.8,204.6 L 1156.7,209.6 L 1164.4,214.9 L 1172.0,220.3 L 1179.3,226.0 L 1186.4,232.0 L 1193.2,238.3 L 1199.5,245.0 L 1205.5,252.1 L 1210.9,259.6 L 1216.0,267.4 L 1220.7,275.4 L 1224.9,283.6 L 1228.8,292.1 L 1232.4,300.7 L 1235.7,309.3 L 1239.0,318.0 L 1242.3,326.6 L 1245.6,335.2 L 1249.1,343.6 L 1252.8,352.0 L 1256.7,360.2 L 1260.7,368.5 L 1264.8,376.6 L 1269.0,384.8 L 1273.3,393.0 L 1277.6,401.2 L 1281.8,409.5 L 1285.8,417.9 L 1289.4,426.5 L 1292.7,435.1 L 1295.6,444.0 L 1297.9,452.9 L 1299.8,462.0 L 1301.3,471.2 L 1302.3,480.5 L 1302.9,489.8 L 1303.1,499.1 L 1303.0,508.4 L 1302.7,517.8 L 1302.2,527.1 L 1301.7,536.4 L 1301.2,545.7 L 1300.9,554.9 L 1300.8,564.1 L 1301.0,573.3 L 1301.4,582.4 L 1302.0,591.6 L 1302.7,600.7 L 1303.5,609.9 L 1304.3,619.2 L 1305.1,628.4 L 1305.8,637.7 L 1306.4,647.0 L 1306.6,656.3 L 1306.5,665.6 L 1306.0,674.8 L 1304.9,684.0 L 1303.3,693.1 L 1301.1,702.1 L 1298.4,711.0 L 1295.3,719.8 L 1291.7,728.5 L 1287.7,736.9 L 1283.3,745.2 L 1278.7,753.4 L 1274.0,761.5 L 1269.2,769.4 L 1264.4,777.4 L 1259.8,785.4 L 1255.4,793.3 L 1251.1,801.4 L 1247.1,809.5 L 1243.1,817.7 L 1239.4,826.0 L 1235.8,834.5 L 1232.3,843.0 L 1228.8,851.7 L 1225.4,860.3 L 1221.9,869.0 L 1218.4,877.6 L 1214.7,886.1 L 1210.8,894.6 L 1206.6,902.9 L 1202.2,911.0 L 1197.4,918.8 L 1192.3,926.5 L 1186.7,933.8 L 1180.7,940.9 L 1174.3,947.6 L 1167.6,954.2 L 1160.6,960.5 L 1153.3,966.5 L 1145.8,972.3 L 1138.2,978.0 L 1130.4,983.4 L 1122.6,988.7 L 1114.7,993.8 L 1106.8,998.7 L 1098.9,1003.6 L 1091.2,1008.5 L 1083.5,1013.5 L 1076.1,1018.7 L 1069.0,1024.1 L 1062.1,1029.8 L 1055.5,1036.0 L 1049.2,1042.4 L 1043.0,1049.0 L 1036.9,1055.8 L 1030.8,1062.6 L 1024.6,1069.5 L 1018.3,1076.3 L 1011.9,1082.9 L 1005.2,1089.3 L 998.3,1095.5 L 991.1,1101.4 L 983.5,1106.8 L 975.7,1111.9 L 967.6,1116.7 L 959.3,1121.1 L 950.8,1125.1 L 942.2,1128.9 L 933.3,1132.2 L 924.4,1135.3 L 915.4,1137.9 L 906.2,1140.1 L 897.0,1141.9 L 887.7,1143.2 L 878.4,1144.0 L 869.1,1144.4 L 859.8,1144.5 L 850.4,1144.4 L 841.2,1144.2 L 831.9,1144.0 L 822.8,1144.1 L 813.7,1144.4 L 804.7,1145.2 L 795.9,1146.4 L 787.1,1148.1 L 778.4,1150.3 L 769.8,1152.9 L 761.2,1155.9 L 752.6,1159.4 L 744.1,1163.2 L 735.5,1167.1 L 727.0,1170.7 L 718.5,1173.6 L 710.0,1175.7 Z" fill="url(#brainBaseGrad)"/></g>
<path d="M 701.4,1176.5 L 692.9,1175.9 L 684.4,1174.0 L 675.9,1171.2 L 667.3,1167.8 L 658.8,1164.1 L 650.2,1160.4 L 641.6,1156.9 L 633.0,1154.0 L 624.4,1151.6 L 615.7,1149.7 L 606.9,1148.1 L 598.1,1146.9 L 589.1,1145.9 L 580.1,1145.2 L 571.0,1144.6 L 561.8,1144.1 L 552.5,1143.7 L 543.2,1143.3 L 533.9,1142.9 L 524.5,1142.3 L 515.2,1141.6 L 505.9,1140.7 L 496.7,1139.5 L 487.5,1138.0 L 478.4,1136.1 L 469.5,1133.7 L 460.6,1130.9 L 451.9,1127.6 L 443.3,1123.7 L 434.9,1119.3 L 426.8,1114.5 L 418.8,1109.2 L 411.2,1103.6 L 403.9,1097.6 L 396.9,1091.3 L 390.2,1084.8 L 383.7,1078.1 L 377.4,1071.4 L 371.2,1064.5 L 365.0,1057.7 L 358.9,1051.0 L 352.8,1044.4 L 346.5,1038.0 L 340.0,1031.9 L 333.3,1026.1 L 326.2,1020.6 L 318.9,1015.4 L 311.3,1010.3 L 303.6,1005.4 L 295.7,1000.5 L 287.9,995.5 L 280.0,990.4 L 272.1,985.1 L 264.3,979.7 L 256.7,974.1 L 249.2,968.3 L 241.9,962.3 L 234.8,956.1 L 228.0,949.7 L 221.5,943.0 L 215.3,936.0 L 209.5,928.8 L 204.2,921.3 L 199.2,913.5 L 194.6,905.4 L 190.4,897.2 L 186.4,888.8 L 182.6,880.3 L 179.0,871.7 L 175.5,863.1 L 172.1,854.4 L 168.7,845.8 L 165.4,837.2 L 161.9,828.7 L 158.4,820.3 L 154.7,812.1 L 150.8,804.0 L 146.6,796.0 L 142.1,788.1 L 137.5,780.2 L 132.7,772.3 L 127.8,764.4 L 123.0,756.4 L 118.3,748.3 L 113.8,740.0 L 109.7,731.6 L 105.9,723.0 L 102.6,714.3 L 99.8,705.4 L 97.4,696.3 L 95.6,687.2 L 94.4,678.1 L 93.6,668.8 L 93.4,659.6 L 93.6,650.3 L 94.0,641.1 L 94.7,631.8 L 95.5,622.6 L 96.3,613.4 L 97.2,604.3 L 97.9,595.2 L 98.6,586.1 L 99.1,577.0 L 99.4,567.8 L 99.4,558.7 L 99.1,549.4 L 98.5,540.1 L 97.9,530.7 L 97.2,521.3 L 96.6,511.9 L 96.3,502.6 L 96.5,493.3 L 97.1,484.1 L 98.2,475.0 L 99.8,465.9 L 101.9,457.0 L 104.3,448.1 L 107.2,439.3 L 110.3,430.6 L 113.6,421.9 L 117.3,413.3 L 121.0,404.8 L 124.9,396.4 L 129.0,388.0 L 133.0,379.7 L 137.1,371.5 L 141.1,363.2 L 145.1,354.9 L 148.9,346.6 L 152.6,338.2 L 156.1,329.6 L 159.4,320.9 L 162.7,312.1 L 166.0,303.4 L 169.5,294.7 L 173.3,286.3 L 177.6,278.1 L 182.2,270.2 L 187.4,262.6 L 192.9,255.3 L 198.8,248.2 L 205.0,241.5 L 211.6,235.0 L 218.5,228.7 L 225.5,222.8 L 232.9,217.0 L 240.4,211.5 L 248.0,206.3 L 255.8,201.2 L 263.7,196.3 L 271.6,191.4 L 279.5,186.4 L 287.3,181.3 L 295.0,176.1 L 302.6,170.6 L 310.1,164.9 L 317.6,159.3 L 325.2,153.8 L 332.8,148.5 L 340.6,143.5 L 348.6,139.0 L 356.8,134.8 L 365.2,131.0 L 373.7,127.5 L 382.3,124.3 L 391.0,121.4 L 399.8,118.7 L 408.7,116.3 L 417.6,114.1 L 426.6,112.1 L 435.6,110.2 L 444.6,108.5 L 453.6,106.8 L 462.5,105.2 L 471.5,103.5 L 480.4,101.6 L 489.3,99.4 L 498.2,97.0 L 507.1,94.2 L 516.0,91.3 L 525.0,88.4 L 533.9,85.6 L 542.9,83.0 L 552.0,80.8 L 561.1,79.1 L 570.2,78.0 L 579.3,77.6 L 588.5,77.8 L 597.7,78.5 L 607.0,79.6 L 616.2,80.9 L 625.5,82.6 L 634.7,84.3 L 644.0,86.1 L 653.2,87.9 L 662.4,89.5 L 671.5,90.9 L 680.7,92.1 L 689.7,92.8 L 698.8,93.0 L 707.7,92.8 L 716.7,92.1 L 725.6,91.1 L 734.6,89.8 L 743.5,88.3 L 752.6,86.6 L 761.7,84.9 L 770.9,83.3 L 780.1,81.7 L 789.4,80.3 L 798.7,79.2 L 808.0,78.5 L 817.3,78.1 L 826.6,78.4 L 835.8,79.2 L 844.9,80.6 L 854.0,82.5 L 863.0,84.8 L 871.9,87.3 L 880.8,90.1 L 889.6,93.0 L 898.4,95.9 L 907.2,98.6 L 915.9,101.2 L 924.8,103.6 L 933.6,105.6 L 942.6,107.5 L 951.6,109.1 L 960.7,110.5 L 969.9,112.0 L 979.0,113.4 L 988.1,115.0 L 997.2,116.9 L 1006.1,119.1 L 1014.9,121.7 L 1023.5,124.9 L 1032.0,128.6 L 1040.3,132.7 L 1048.4,137.2 L 1056.3,142.1 L 1064.2,147.2 L 1071.8,152.5 L 1079.4,158.0 L 1087.0,163.5 L 1094.5,169.0 L 1102.0,174.4 L 1109.7,179.7 L 1117.4,184.8 L 1125.2,189.8 L 1133.1,194.7 L 1141.0,199.6 L 1148.8,204.6 L 1156.7,209.6 L 1164.4,214.9 L 1172.0,220.3 L 1179.3,226.0 L 1186.4,232.0 L 1193.2,238.3 L 1199.5,245.0 L 1205.5,252.1 L 1210.9,259.6 L 1216.0,267.4 L 1220.7,275.4 L 1224.9,283.6 L 1228.8,292.1 L 1232.4,300.7 L 1235.7,309.3 L 1239.0,318.0 L 1242.3,326.6 L 1245.6,335.2 L 1249.1,343.6 L 1252.8,352.0 L 1256.7,360.2 L 1260.7,368.5 L 1264.8,376.6 L 1269.0,384.8 L 1273.3,393.0 L 1277.6,401.2 L 1281.8,409.5 L 1285.8,417.9 L 1289.4,426.5 L 1292.7,435.1 L 1295.6,444.0 L 1297.9,452.9 L 1299.8,462.0 L 1301.3,471.2 L 1302.3,480.5 L 1302.9,489.8 L 1303.1,499.1 L 1303.0,508.4 L 1302.7,517.8 L 1302.2,527.1 L 1301.7,536.4 L 1301.2,545.7 L 1300.9,554.9 L 1300.8,564.1 L 1301.0,573.3 L 1301.4,582.4 L 1302.0,591.6 L 1302.7,600.7 L 1303.5,609.9 L 1304.3,619.2 L 1305.1,628.4 L 1305.8,637.7 L 1306.4,647.0 L 1306.6,656.3 L 1306.5,665.6 L 1306.0,674.8 L 1304.9,684.0 L 1303.3,693.1 L 1301.1,702.1 L 1298.4,711.0 L 1295.3,719.8 L 1291.7,728.5 L 1287.7,736.9 L 1283.3,745.2 L 1278.7,753.4 L 1274.0,761.5 L 1269.2,769.4 L 1264.4,777.4 L 1259.8,785.4 L 1255.4,793.3 L 1251.1,801.4 L 1247.1,809.5 L 1243.1,817.7 L 1239.4,826.0 L 1235.8,834.5 L 1232.3,843.0 L 1228.8,851.7 L 1225.4,860.3 L 1221.9,869.0 L 1218.4,877.6 L 1214.7,886.1 L 1210.8,894.6 L 1206.6,902.9 L 1202.2,911.0 L 1197.4,918.8 L 1192.3,926.5 L 1186.7,933.8 L 1180.7,940.9 L 1174.3,947.6 L 1167.6,954.2 L 1160.6,960.5 L 1153.3,966.5 L 1145.8,972.3 L 1138.2,978.0 L 1130.4,983.4 L 1122.6,988.7 L 1114.7,993.8 L 1106.8,998.7 L 1098.9,1003.6 L 1091.2,1008.5 L 1083.5,1013.5 L 1076.1,1018.7 L 1069.0,1024.1 L 1062.1,1029.8 L 1055.5,1036.0 L 1049.2,1042.4 L 1043.0,1049.0 L 1036.9,1055.8 L 1030.8,1062.6 L 1024.6,1069.5 L 1018.3,1076.3 L 1011.9,1082.9 L 1005.2,1089.3 L 998.3,1095.5 L 991.1,1101.4 L 983.5,1106.8 L 975.7,1111.9 L 967.6,1116.7 L 959.3,1121.1 L 950.8,1125.1 L 942.2,1128.9 L 933.3,1132.2 L 924.4,1135.3 L 915.4,1137.9 L 906.2,1140.1 L 897.0,1141.9 L 887.7,1143.2 L 878.4,1144.0 L 869.1,1144.4 L 859.8,1144.5 L 850.4,1144.4 L 841.2,1144.2 L 831.9,1144.0 L 822.8,1144.1 L 813.7,1144.4 L 804.7,1145.2 L 795.9,1146.4 L 787.1,1148.1 L 778.4,1150.3 L 769.8,1152.9 L 761.2,1155.9 L 752.6,1159.4 L 744.1,1163.2 L 735.5,1167.1 L 727.0,1170.7 L 718.5,1173.6 L 710.0,1175.7 Z" fill="url(#warmGlow)" opacity="0.9"/>
<g id="pieces-layer" clip-path="url(#brainClip)">
<rect x="80" y="80" width="1240" height="1040" fill="url(#brainBaseGrad)"/>
<g id="piece-r0c0" class="piece role-base base" data-role="base" style="transform-box:fill-box;transform-origin:center;">
  <path d="M 110.00,95.00 L 306.00,95.00 L 306.00,131.36 C 306.00,147.52 276.24,143.48 275.00,196.00 C 276.24,244.48 306.00,240.44 306.00,256.60 L 306.00,297.00 L 257.00,297.00 C 241.32,297.00 245.24,321.96 208.00,323.00 C 162.92,321.96 166.84,297.00 151.16,297.00 L 110.00,297.00 L 110.00,95.00 Z" fill="#4b6def" fill-opacity="0.9" stroke="#F3F7FF" stroke-width="5" stroke-linejoin="round" stroke-linecap="round"/>
</g>
<g id="piece-r0c1" class="piece role-base base" data-role="base" style="transform-box:fill-box;transform-origin:center;">
  <path d="M 306.00,95.00 L 502.00,95.00 L 502.00,137.42 C 502.00,153.58 476.08,149.54 475.00,196.00 C 476.08,246.50 502.00,242.46 502.00,258.62 L 502.00,297.00 L 464.76,297.00 C 449.08,297.00 453.00,269.16 404.00,268.00 C 360.88,269.16 364.80,297.00 349.12,297.00 L 306.00,297.00 L 306.00,256.60 C 306.00,240.44 276.24,244.48 275.00,196.00 C 276.24,143.48 306.00,147.52 306.00,131.36 L 306.00,95.00 Z" fill="#4c77ef" fill-opacity="0.9" stroke="#F3F7FF" stroke-width="5" stroke-linejoin="round" stroke-linecap="round"/>
</g>
<g id="piece-r0c2" class="piece role-result accent" data-role="result" style="transform-box:fill-box;transform-origin:center;">
  <path d="M 502.00,95.00 L 698.00,95.00 L 698.00,133.38 C 698.00,149.54 722.00,145.50 723.00,196.00 C 722.00,240.44 698.00,236.40 698.00,252.56 L 698.00,297.00 L 654.88,297.00 C 639.20,297.00 643.12,273.96 600.00,273.00 C 551.00,273.96 554.92,297.00 539.24,297.00 L 502.00,297.00 L 502.00,258.62 C 502.00,242.46 476.08,246.50 475.00,196.00 C 476.08,149.54 502.00,153.58 502.00,137.42 L 502.00,95.00 Z" fill="#D84BC9" fill-opacity="0.95" stroke="#F3F7FF" stroke-width="5" stroke-linejoin="round" stroke-linecap="round"/>
  <g class="icon icon-target" stroke="#FFFFFF" stroke-width="4.5" stroke-linecap="round" stroke-linejoin="round" fill="none" opacity="0.98">
    <circle cx="600.0" cy="196.0" r="28"/><circle cx="600.0" cy="196.0" r="16"/><circle cx="600.0" cy="196.0" r="4"/>
    <path d="M 604.0,192.0 L 626.0,170.0 M 626.0,170.0 h -10.0 M 626.0,170.0 v 10.0"/>
  </g>
</g>
<g id="piece-r0c3" class="piece role-tech accent" data-role="tech" style="transform-box:fill-box;transform-origin:center;">
  <path d="M 698.00,95.00 L 894.00,95.00 L 894.00,143.48 C 894.00,159.64 918.96,155.60 920.00,196.00 C 918.96,246.50 894.00,242.46 894.00,258.62 L 894.00,297.00 L 845.00,297.00 C 829.32,297.00 833.24,273.00 796.00,272.00 C 752.88,273.00 756.80,297.00 741.12,297.00 L 698.00,297.00 L 698.00,252.56 C 698.00,236.40 722.00,240.44 723.00,196.00 C 722.00,145.50 698.00,149.54 698.00,133.38 L 698.00,95.00 Z" fill="#5D66FF" fill-opacity="0.95" stroke="#F3F7FF" stroke-width="5" stroke-linejoin="round" stroke-linecap="round"/>
  <g class="icon icon-laptop" stroke="#FFFFFF" stroke-width="4.5" stroke-linecap="round" stroke-linejoin="round" fill="none" opacity="0.98">
    <rect x="770.0" y="178.0" width="52.0" height="32.0" rx="4"/>
    <path d="M 762.0,216.0 H 830.0 M 786.0,216.0 H 806.0"/>
    <path d="M 782.0,193.0 l 8,-6 M 782.0,203.0 l 8,-6 M 810.0,193.0 l -8,-6 M 810.0,203.0 l -8,-6"/>
  </g>
</g>
<g id="piece-r0c4" class="piece role-base base" data-role="base" style="transform-box:fill-box;transform-origin:center;">
  <path d="M 894.00,95.00 L 1090.00,95.00 L 1090.00,145.50 C 1090.00,161.66 1118.80,157.62 1120.00,196.00 C 1118.80,244.48 1090.00,240.44 1090.00,256.60 L 1090.00,297.00 L 1048.84,297.00 C 1033.16,297.00 1037.08,271.08 992.00,270.00 C 948.88,271.08 952.80,297.00 937.12,297.00 L 894.00,297.00 L 894.00,258.62 C 894.00,242.46 918.96,246.50 920.00,196.00 C 918.96,155.60 894.00,159.64 894.00,143.48 L 894.00,95.00 Z" fill="#5195f2" fill-opacity="0.9" stroke="#F3F7FF" stroke-width="5" stroke-linejoin="round" stroke-linecap="round"/>
</g>
<g id="piece-r0c5" class="piece role-base base" data-role="base" style="transform-box:fill-box;transform-origin:center;">
  <path d="M 1090.00,95.00 L 1286.00,95.00 L 1286.00,297.00 L 1237.00,297.00 C 1221.32,297.00 1225.24,265.32 1188.00,264.00 C 1144.88,265.32 1148.80,297.00 1133.12,297.00 L 1090.00,297.00 L 1090.00,256.60 C 1090.00,240.44 1118.80,244.48 1120.00,196.00 C 1118.80,157.62 1090.00,161.66 1090.00,145.50 L 1090.00,95.00 Z" fill="#539ff2" fill-opacity="0.9" stroke="#F3F7FF" stroke-width="5" stroke-linejoin="round" stroke-linecap="round"/>
</g>
<g id="piece-r1c0" class="piece role-base base" data-role="base" style="transform-box:fill-box;transform-origin:center;">
  <path d="M 110.00,297.00 L 151.16,297.00 C 166.84,297.00 162.92,321.96 208.00,323.00 C 245.24,321.96 241.32,297.00 257.00,297.00 L 306.00,297.00 L 306.00,335.38 C 306.00,351.54 331.92,347.50 333.00,398.00 C 331.92,438.40 306.00,434.36 306.00,450.52 L 306.00,499.00 L 258.96,499.00 C 243.28,499.00 247.20,475.96 208.00,475.00 C 164.88,475.96 168.80,499.00 153.12,499.00 L 110.00,499.00 L 110.00,297.00 Z" fill="#4b72ef" fill-opacity="0.9" stroke="#F3F7FF" stroke-width="5" stroke-linejoin="round" stroke-linecap="round"/>
</g>
<g id="piece-r1c1" class="piece role-analysis accent" data-role="analysis" style="transform-box:fill-box;transform-origin:center;">
  <path d="M 306.00,297.00 L 349.12,297.00 C 364.80,297.00 360.88,269.16 404.00,268.00 C 453.00,269.16 449.08,297.00 464.76,297.00 L 502.00,297.00 L 502.00,337.40 C 502.00,353.56 469.36,349.52 468.00,398.00 C 469.36,442.44 502.00,438.40 502.00,454.56 L 502.00,499.00 L 460.84,499.00 C 445.16,499.00 449.08,523.96 404.00,525.00 C 360.88,523.96 364.80,499.00 349.12,499.00 L 306.00,499.00 L 306.00,450.52 C 306.00,434.36 331.92,438.40 333.00,398.00 C 331.92,347.50 306.00,351.54 306.00,335.38 L 306.00,297.00 Z" fill="#3EC0E5" fill-opacity="0.95" stroke="#F3F7FF" stroke-width="5" stroke-linejoin="round" stroke-linecap="round"/>
  <g class="icon icon-chart" stroke="#FFFFFF" stroke-width="4.5" stroke-linecap="round" stroke-linejoin="round" fill="none" opacity="0.98">
    <path d="M 372.0,420.0 H 438.0 M 376.0,420.0 V 388.0 M 398.0,420.0 V 374.0 M 420.0,420.0 V 396.0"/>
    <path d="M 380.0,402.0 L 398.0,390.0 L 412.0,382.0 L 428.0,392.0"/>
    <circle cx="428.0" cy="392.0" r="3"/>
  </g>
</g>
<g id="piece-r1c2" class="piece role-creativity accent" data-role="creativity" style="transform-box:fill-box;transform-origin:center;">
  <path d="M 502.00,297.00 L 539.24,297.00 C 554.92,297.00 551.00,273.96 600.00,273.00 C 643.12,273.96 639.20,297.00 654.88,297.00 L 698.00,297.00 L 698.00,337.40 C 698.00,353.56 671.12,349.52 670.00,398.00 C 671.12,438.40 698.00,434.36 698.00,450.52 L 698.00,499.00 L 656.84,499.00 C 641.16,499.00 645.08,475.00 600.00,474.00 C 556.88,475.00 560.80,499.00 545.12,499.00 L 502.00,499.00 L 502.00,454.56 C 502.00,438.40 469.36,442.44 468.00,398.00 C 469.36,349.52 502.00,353.56 502.00,337.40 L 502.00,297.00 Z" fill="#C85BE5" fill-opacity="0.95" stroke="#F3F7FF" stroke-width="5" stroke-linejoin="round" stroke-linecap="round"/>
  <g class="icon icon-palette" stroke="#FFFFFF" stroke-width="4.5" stroke-linecap="round" stroke-linejoin="round" fill="none" opacity="0.98">
    <path d="M 574.0,406.0 C 562.0,378.0 590.0,362.0 614.0,370.0 C 634.0,376.0 636.0,404.0 614.0,412.0 C 606.0,414.0 602.0,406.0 594.0,408.0 C 586.0,410.0 578.0,416.0 574.0,406.0 Z"/>
    <circle cx="588.0" cy="388.0" r="3"/><circle cx="598.0" cy="380.0" r="3"/><circle cx="610.0" cy="386.0" r="3"/><circle cx="612.0" cy="400.0" r="3"/>
    <path d="M 618.0,416.0 l 18.0,18.0 M 628.0,426.0 l 8,8"/>
  </g>
</g>
<g id="piece-r1c3" class="piece role-base base" data-role="base" style="transform-box:fill-box;transform-origin:center;">
  <path d="M 698.00,297.00 L 741.12,297.00 C 756.80,297.00 752.88,273.00 796.00,272.00 C 833.24,273.00 829.32,297.00 845.00,297.00 L 894.00,297.00 L 894.00,341.44 C 894.00,357.60 925.68,353.56 927.00,398.00 C 925.68,450.52 894.00,446.48 894.00,462.64 L 894.00,499.00 L 845.00,499.00 C 829.32,499.00 833.24,523.00 796.00,524.00 C 752.88,523.00 756.80,499.00 741.12,499.00 L 698.00,499.00 L 698.00,450.52 C 698.00,434.36 671.12,438.40 670.00,398.00 C 671.12,349.52 698.00,353.56 698.00,337.40 L 698.00,297.00 Z" fill="#5090f1" fill-opacity="0.9" stroke="#F3F7FF" stroke-width="5" stroke-linejoin="round" stroke-linecap="round"/>
</g>
<g id="piece-r1c4" class="piece role-people accent" data-role="people" style="transform-box:fill-box;transform-origin:center;">
  <path d="M 894.00,297.00 L 937.12,297.00 C 952.80,297.00 948.88,271.08 992.00,270.00 C 1037.08,271.08 1033.16,297.00 1048.84,297.00 L 1090.00,297.00 L 1090.00,345.48 C 1090.00,361.64 1060.24,357.60 1059.00,398.00 C 1060.24,446.48 1090.00,442.44 1090.00,458.60 L 1090.00,499.00 L 1050.80,499.00 C 1035.12,499.00 1039.04,467.32 992.00,466.00 C 943.00,467.32 946.92,499.00 931.24,499.00 L 894.00,499.00 L 894.00,462.64 C 894.00,446.48 925.68,450.52 927.00,398.00 C 925.68,353.56 894.00,357.60 894.00,341.44 L 894.00,297.00 Z" fill="#E65CA8" fill-opacity="0.95" stroke="#F3F7FF" stroke-width="5" stroke-linejoin="round" stroke-linecap="round"/>
  <g class="icon icon-users" stroke="#FFFFFF" stroke-width="4.5" stroke-linecap="round" stroke-linejoin="round" fill="none" opacity="0.98">
    <circle cx="992.0" cy="384.0" r="10"/><circle cx="970.0" cy="392.0" r="8"/><circle cx="1014.0" cy="392.0" r="8"/>
    <path d="M 972.0,418.0 C 974.0,400.0 1010.0,400.0 1012.0,418.0"/>
    <path d="M 954.0,416.0 C 956.0,404.0 978.0,404.0 980.0,414.0 M 1030.0,416.0 C 1028.0,404.0 1006.0,404.0 1004.0,414.0"/>
  </g>
</g>
<g id="piece-r1c5" class="piece role-base base" data-role="base" style="transform-box:fill-box;transform-origin:center;">
  <path d="M 1090.00,297.00 L 1133.12,297.00 C 1148.80,297.00 1144.88,265.32 1188.00,264.00 C 1225.24,265.32 1221.32,297.00 1237.00,297.00 L 1286.00,297.00 L 1286.00,499.00 L 1248.76,499.00 C 1233.08,499.00 1237.00,526.84 1188.00,528.00 C 1142.92,526.84 1146.84,499.00 1131.16,499.00 L 1090.00,499.00 L 1090.00,458.60 C 1090.00,442.44 1060.24,446.48 1059.00,398.00 C 1060.24,357.60 1090.00,361.64 1090.00,345.48 L 1090.00,297.00 Z" fill="#54a4f3" fill-opacity="0.9" stroke="#F3F7FF" stroke-width="5" stroke-linejoin="round" stroke-linecap="round"/>
</g>
<g id="piece-r2c0" class="piece role-base base" data-role="base" style="transform-box:fill-box;transform-origin:center;">
  <path d="M 110.00,499.00 L 153.12,499.00 C 168.80,499.00 164.88,475.96 208.00,475.00 C 247.20,475.96 243.28,499.00 258.96,499.00 L 306.00,499.00 L 306.00,541.42 C 306.00,557.58 334.80,553.54 336.00,600.00 C 334.80,640.40 306.00,636.36 306.00,652.52 L 306.00,701.00 L 258.96,701.00 C 243.28,701.00 247.20,727.88 208.00,729.00 C 160.96,727.88 164.88,701.00 149.20,701.00 L 110.00,701.00 L 110.00,499.00 Z" fill="#4c78ef" fill-opacity="0.9" stroke="#F3F7FF" stroke-width="5" stroke-linejoin="round" stroke-linecap="round"/>
</g>
<g id="piece-r2c1" class="piece role-engineering accent" data-role="engineering" style="transform-box:fill-box;transform-origin:center;">
  <path d="M 306.00,499.00 L 349.12,499.00 C 364.80,499.00 360.88,523.96 404.00,525.00 C 449.08,523.96 445.16,499.00 460.84,499.00 L 502.00,499.00 L 502.00,537.38 C 502.00,553.54 525.04,549.50 526.00,600.00 C 525.04,652.52 502.00,648.48 502.00,664.64 L 502.00,701.00 L 460.84,701.00 C 445.16,701.00 449.08,677.00 404.00,676.00 C 360.88,677.00 364.80,701.00 349.12,701.00 L 306.00,701.00 L 306.00,652.52 C 306.00,636.36 334.80,640.40 336.00,600.00 C 334.80,553.54 306.00,557.58 306.00,541.42 L 306.00,499.00 Z" fill="#4E8CEB" fill-opacity="0.95" stroke="#F3F7FF" stroke-width="5" stroke-linejoin="round" stroke-linecap="round"/>
  <g class="icon icon-gear" stroke="#FFFFFF" stroke-width="4.5" stroke-linecap="round" stroke-linejoin="round" fill="none" opacity="0.98">
    <circle cx="404.0" cy="600.0" r="18"/><circle cx="404.0" cy="600.0" r="7"/>
    <path d="M 422.00,600.00 L 434.00,600.00"/>
    <path d="M 416.73,612.73 L 425.21,621.21"/>
    <path d="M 404.00,618.00 L 404.00,630.00"/>
    <path d="M 391.27,612.73 L 382.79,621.21"/>
    <path d="M 386.00,600.00 L 374.00,600.00"/>
    <path d="M 391.27,587.27 L 382.79,578.79"/>
    <path d="M 404.00,582.00 L 404.00,570.00"/>
    <path d="M 416.73,587.27 L 425.21,578.79"/>
  </g>
</g>
<g id="piece-r2c2" class="piece role-base base" data-role="base" style="transform-box:fill-box;transform-origin:center;">
  <path d="M 502.00,499.00 L 545.12,499.00 C 560.80,499.00 556.88,475.00 600.00,474.00 C 645.08,475.00 641.16,499.00 656.84,499.00 L 698.00,499.00 L 698.00,537.38 C 698.00,553.54 722.96,549.50 724.00,600.00 C 722.96,646.46 698.00,642.42 698.00,658.58 L 698.00,701.00 L 662.72,701.00 C 647.04,701.00 650.96,730.76 600.00,732.00 C 552.96,730.76 556.88,701.00 541.20,701.00 L 502.00,701.00 L 502.00,664.64 C 502.00,648.48 525.04,652.52 526.00,600.00 C 525.04,549.50 502.00,553.54 502.00,537.38 L 502.00,499.00 Z" fill="#508cf1" fill-opacity="0.9" stroke="#F3F7FF" stroke-width="5" stroke-linejoin="round" stroke-linecap="round"/>
</g>
<g id="piece-r2c3" class="piece role-science accent" data-role="science" style="transform-box:fill-box;transform-origin:center;">
  <path d="M 698.00,499.00 L 741.12,499.00 C 756.80,499.00 752.88,523.00 796.00,524.00 C 833.24,523.00 829.32,499.00 845.00,499.00 L 894.00,499.00 L 894.00,543.44 C 894.00,559.60 870.96,555.56 870.00,600.00 C 870.96,646.46 894.00,642.42 894.00,658.58 L 894.00,701.00 L 854.80,701.00 C 839.12,701.00 843.04,670.28 796.00,669.00 C 750.92,670.28 754.84,701.00 739.16,701.00 L 698.00,701.00 L 698.00,658.58 C 698.00,642.42 722.96,646.46 724.00,600.00 C 722.96,549.50 698.00,553.54 698.00,537.38 L 698.00,499.00 Z" fill="#45B7E6" fill-opacity="0.95" stroke="#F3F7FF" stroke-width="5" stroke-linejoin="round" stroke-linecap="round"/>
  <g class="icon icon-flask" stroke="#FFFFFF" stroke-width="4.5" stroke-linecap="round" stroke-linejoin="round" fill="none" opacity="0.98">
    <path d="M 786.0,574.0 H 806.0 M 792.0,574.0 V 598.0 L 772.0,624.0 H 820.0 L 800.0,598.0 V 574.0"/>
    <path d="M 780.0,610.0 Q 796.0,604.0 812.0,610.0"/>
    <circle cx="789.0" cy="606.0" r="2.7"/><circle cx="804.0" cy="602.0" r="2.7"/>
  </g>
</g>
<g id="piece-r2c4" class="piece role-management accent" data-role="management" style="transform-box:fill-box;transform-origin:center;">
  <path d="M 894.00,499.00 L 931.24,499.00 C 946.92,499.00 943.00,467.32 992.00,466.00 C 1039.04,467.32 1035.12,499.00 1050.80,499.00 L 1090.00,499.00 L 1090.00,535.36 C 1090.00,551.52 1121.68,547.48 1123.00,600.00 C 1121.68,650.50 1090.00,646.46 1090.00,662.62 L 1090.00,701.00 L 1054.72,701.00 C 1039.04,701.00 1042.96,671.24 992.00,670.00 C 946.92,671.24 950.84,701.00 935.16,701.00 L 894.00,701.00 L 894.00,658.58 C 894.00,642.42 870.96,646.46 870.00,600.00 C 870.96,555.56 894.00,559.60 894.00,543.44 L 894.00,499.00 Z" fill="#7B63FF" fill-opacity="0.95" stroke="#F3F7FF" stroke-width="5" stroke-linejoin="round" stroke-linecap="round"/>
  <g class="icon icon-briefcase" stroke="#FFFFFF" stroke-width="4.5" stroke-linecap="round" stroke-linejoin="round" fill="none" opacity="0.98">
    <rect x="964.0" y="588.0" width="56.0" height="36.0" rx="5"/>
    <path d="M 982.0,588.0 V 578.0 H 1002.0 V 588.0 M 964.0,602.0 H 1020.0 M 990.0,598.0 H 994.0"/>
  </g>
</g>
<g id="piece-r2c5" class="piece role-base base" data-role="base" style="transform-box:fill-box;transform-origin:center;">
  <path d="M 1090.00,499.00 L 1131.16,499.00 C 1146.84,499.00 1142.92,526.84 1188.00,528.00 C 1237.00,526.84 1233.08,499.00 1248.76,499.00 L 1286.00,499.00 L 1286.00,701.00 L 1248.76,701.00 C 1233.08,701.00 1237.00,670.28 1188.00,669.00 C 1144.88,670.28 1148.80,701.00 1133.12,701.00 L 1090.00,701.00 L 1090.00,662.62 C 1090.00,646.46 1121.68,650.50 1123.00,600.00 C 1121.68,547.48 1090.00,551.52 1090.00,535.36 L 1090.00,499.00 Z" fill="#55aaf3" fill-opacity="0.9" stroke="#F3F7FF" stroke-width="5" stroke-linejoin="round" stroke-linecap="round"/>
</g>
<g id="piece-r3c0" class="piece role-base base" data-role="base" style="transform-box:fill-box;transform-origin:center;">
  <path d="M 110.00,701.00 L 149.20,701.00 C 164.88,701.00 160.96,727.88 208.00,729.00 C 247.20,727.88 243.28,701.00 258.96,701.00 L 306.00,701.00 L 306.00,745.44 C 306.00,761.60 330.96,757.56 332.00,802.00 C 330.96,854.52 306.00,850.48 306.00,866.64 L 306.00,903.00 L 264.84,903.00 C 249.16,903.00 253.08,930.84 208.00,932.00 C 166.84,930.84 170.76,903.00 155.08,903.00 L 110.00,903.00 L 110.00,701.00 Z" fill="#4d7ef0" fill-opacity="0.9" stroke="#F3F7FF" stroke-width="5" stroke-linejoin="round" stroke-linecap="round"/>
</g>
<g id="piece-r3c1" class="piece role-education accent" data-role="education" style="transform-box:fill-box;transform-origin:center;">
  <path d="M 306.00,701.00 L 349.12,701.00 C 364.80,701.00 360.88,677.00 404.00,676.00 C 449.08,677.00 445.16,701.00 460.84,701.00 L 502.00,701.00 L 502.00,739.38 C 502.00,755.54 531.76,751.50 533.00,802.00 C 531.76,852.50 502.00,848.46 502.00,864.62 L 502.00,903.00 L 466.72,903.00 C 451.04,903.00 454.96,927.00 404.00,928.00 C 364.80,927.00 368.72,903.00 353.04,903.00 L 306.00,903.00 L 306.00,866.64 C 306.00,850.48 330.96,854.52 332.00,802.00 C 330.96,757.56 306.00,761.60 306.00,745.44 L 306.00,701.00 Z" fill="#F0B84C" fill-opacity="0.95" stroke="#F3F7FF" stroke-width="5" stroke-linejoin="round" stroke-linecap="round"/>
  <g class="icon icon-cap" stroke="#FFFFFF" stroke-width="4.5" stroke-linecap="round" stroke-linejoin="round" fill="none" opacity="0.98">
    <path d="M 370.0,800.0 L 404.0,782.0 L 438.0,800.0 L 404.0,818.0 Z"/>
    <path d="M 386.0,808.0 V 822.0 C 400.0,832.0 408.0,832.0 422.0,822.0 V 808.0"/>
    <path d="M 428.0,794.0 V 818.0 M 428.0,818.0 q 8,4 0,12"/>
  </g>
</g>
<g id="piece-r3c2" class="piece role-communication accent" data-role="communication" style="transform-box:fill-box;transform-origin:center;">
  <path d="M 502.00,701.00 L 541.20,701.00 C 556.88,701.00 552.96,730.76 600.00,732.00 C 650.96,730.76 647.04,701.00 662.72,701.00 L 698.00,701.00 L 698.00,743.42 C 698.00,759.58 727.76,755.54 729.00,802.00 C 727.76,842.40 698.00,838.36 698.00,854.52 L 698.00,903.00 L 658.80,903.00 C 643.12,903.00 647.04,935.64 600.00,937.00 C 549.04,935.64 552.96,903.00 537.28,903.00 L 502.00,903.00 L 502.00,864.62 C 502.00,848.46 531.76,852.50 533.00,802.00 C 531.76,751.50 502.00,755.54 502.00,739.38 L 502.00,701.00 Z" fill="#D95BC6" fill-opacity="0.95" stroke="#F3F7FF" stroke-width="5" stroke-linejoin="round" stroke-linecap="round"/>
  <g class="icon icon-chat" stroke="#FFFFFF" stroke-width="4.5" stroke-linecap="round" stroke-linejoin="round" fill="none" opacity="0.98">
    <path d="M 566.0,780.0 h 68.0 a 12,12 0 0 1 12,12 v 24.0 a 12,12 0 0 1 -12,12 h -18.0 l -16.0,14.0 v -14.0 h -34.0 a 12,12 0 0 1 -12,-12 v -24.0 a 12,12 0 0 1 12,-12 z"/>
    <path d="M 584.0,802.0 h 0.1 M 600.0,802.0 h 0.1 M 616.0,802.0 h 0.1" stroke-linecap="round"/>
  </g>
</g>
<g id="piece-r3c3" class="piece role-base base" data-role="base" style="transform-box:fill-box;transform-origin:center;">
  <path d="M 698.00,701.00 L 739.16,701.00 C 754.84,701.00 750.92,670.28 796.00,669.00 C 843.04,670.28 839.12,701.00 854.80,701.00 L 894.00,701.00 L 894.00,747.46 C 894.00,763.62 866.16,759.58 865.00,802.00 C 866.16,846.44 894.00,842.40 894.00,858.56 L 894.00,903.00 L 854.80,903.00 C 839.12,903.00 843.04,935.64 796.00,937.00 C 752.88,935.64 756.80,903.00 741.12,903.00 L 698.00,903.00 L 698.00,854.52 C 698.00,838.36 727.76,842.40 729.00,802.00 C 727.76,755.54 698.00,759.58 698.00,743.42 L 698.00,701.00 Z" fill="#529cf2" fill-opacity="0.9" stroke="#F3F7FF" stroke-width="5" stroke-linejoin="round" stroke-linecap="round"/>
</g>
<g id="piece-r3c4" class="piece role-finance accent" data-role="finance" style="transform-box:fill-box;transform-origin:center;">
  <path d="M 894.00,701.00 L 935.16,701.00 C 950.84,701.00 946.92,671.24 992.00,670.00 C 1042.96,671.24 1039.04,701.00 1054.72,701.00 L 1090.00,701.00 L 1090.00,737.36 C 1090.00,753.52 1059.28,749.48 1058.00,802.00 C 1059.28,854.52 1090.00,850.48 1090.00,866.64 L 1090.00,903.00 L 1052.76,903.00 C 1037.08,903.00 1041.00,929.88 992.00,931.00 C 950.84,929.88 954.76,903.00 939.08,903.00 L 894.00,903.00 L 894.00,858.56 C 894.00,842.40 866.16,846.44 865.00,802.00 C 866.16,759.58 894.00,763.62 894.00,747.46 L 894.00,701.00 Z" fill="#58C2A8" fill-opacity="0.95" stroke="#F3F7FF" stroke-width="5" stroke-linejoin="round" stroke-linecap="round"/>
  <g class="icon icon-coins" stroke="#FFFFFF" stroke-width="4.5" stroke-linecap="round" stroke-linejoin="round" fill="none" opacity="0.98">
    <ellipse cx="992.0" cy="790.0" rx="22" ry="8"/>
    <path d="M 970.0,790.0 V 816.0 C 970.0,826.0 1014.0,826.0 1014.0,816.0 V 790.0"/>
    <path d="M 970.0,804.0 C 970.0,814.0 1014.0,814.0 1014.0,804.0"/>
  </g>
</g>
<g id="piece-r3c5" class="piece role-base base" data-role="base" style="transform-box:fill-box;transform-origin:center;">
  <path d="M 1090.00,701.00 L 1133.12,701.00 C 1148.80,701.00 1144.88,670.28 1188.00,669.00 C 1237.00,670.28 1233.08,701.00 1248.76,701.00 L 1286.00,701.00 L 1286.00,903.00 L 1240.92,903.00 C 1225.24,903.00 1229.16,926.04 1188.00,927.00 C 1150.76,926.04 1154.68,903.00 1139.00,903.00 L 1090.00,903.00 L 1090.00,866.64 C 1090.00,850.48 1059.28,854.52 1058.00,802.00 C 1059.28,749.48 1090.00,753.52 1090.00,737.36 L 1090.00,701.00 Z" fill="#56b0f4" fill-opacity="0.9" stroke="#F3F7FF" stroke-width="5" stroke-linejoin="round" stroke-linecap="round"/>
</g>
<g id="piece-r4c0" class="piece role-base base" data-role="base" style="transform-box:fill-box;transform-origin:center;">
  <path d="M 110.00,903.00 L 155.08,903.00 C 170.76,903.00 166.84,930.84 208.00,932.00 C 253.08,930.84 249.16,903.00 264.84,903.00 L 306.00,903.00 L 306.00,949.46 C 306.00,965.62 330.96,961.58 332.00,1004.00 C 330.96,1054.50 306.00,1050.46 306.00,1066.62 L 306.00,1105.00 L 110.00,1105.00 L 110.00,903.00 Z" fill="#4e83f0" fill-opacity="0.9" stroke="#F3F7FF" stroke-width="5" stroke-linejoin="round" stroke-linecap="round"/>
</g>
<g id="piece-r4c1" class="piece role-base base" data-role="base" style="transform-box:fill-box;transform-origin:center;">
  <path d="M 306.00,903.00 L 353.04,903.00 C 368.72,903.00 364.80,927.00 404.00,928.00 C 454.96,927.00 451.04,903.00 466.72,903.00 L 502.00,903.00 L 502.00,951.48 C 502.00,967.64 534.64,963.60 536.00,1004.00 C 534.64,1052.48 502.00,1048.44 502.00,1064.60 L 502.00,1105.00 L 306.00,1105.00 L 306.00,1066.62 C 306.00,1050.46 330.96,1054.50 332.00,1004.00 C 330.96,961.58 306.00,965.62 306.00,949.46 L 306.00,903.00 Z" fill="#508df1" fill-opacity="0.9" stroke="#F3F7FF" stroke-width="5" stroke-linejoin="round" stroke-linecap="round"/>
</g>
<g id="piece-r4c2" class="piece role-result accent" data-role="result" style="transform-box:fill-box;transform-origin:center;">
  <path d="M 502.00,903.00 L 537.28,903.00 C 552.96,903.00 549.04,935.64 600.00,937.00 C 647.04,935.64 643.12,903.00 658.80,903.00 L 698.00,903.00 L 698.00,945.42 C 698.00,961.58 728.72,957.54 730.00,1004.00 C 728.72,1044.40 698.00,1040.36 698.00,1056.52 L 698.00,1105.00 L 502.00,1105.00 L 502.00,1064.60 C 502.00,1048.44 534.64,1052.48 536.00,1004.00 C 534.64,963.60 502.00,967.64 502.00,951.48 L 502.00,903.00 Z" fill="#D84BC9" fill-opacity="0.95" stroke="#F3F7FF" stroke-width="5" stroke-linejoin="round" stroke-linecap="round"/>
  <g class="icon icon-star" stroke="#FFFFFF" stroke-width="4.5" stroke-linecap="round" stroke-linejoin="round" fill="none" opacity="0.98">
    <polygon points="600.00,974.00 607.05,994.29 628.53,994.73 611.41,1007.71 617.63,1028.27 600.00,1016.00 582.37,1028.27 588.59,1007.71 571.47,994.73 592.95,994.29"/>
  </g>
</g>
<g id="piece-r4c3" class="piece role-tech accent" data-role="tech" style="transform-box:fill-box;transform-origin:center;">
  <path d="M 698.00,903.00 L 741.12,903.00 C 756.80,903.00 752.88,935.64 796.00,937.00 C 843.04,935.64 839.12,903.00 854.80,903.00 L 894.00,903.00 L 894.00,947.44 C 894.00,963.60 863.28,959.56 862.00,1004.00 C 863.28,1050.46 894.00,1046.42 894.00,1062.58 L 894.00,1105.00 L 698.00,1105.00 L 698.00,1056.52 C 698.00,1040.36 728.72,1044.40 730.00,1004.00 C 728.72,957.54 698.00,961.58 698.00,945.42 L 698.00,903.00 Z" fill="#5D66FF" fill-opacity="0.95" stroke="#F3F7FF" stroke-width="5" stroke-linejoin="round" stroke-linecap="round"/>
  <g class="icon icon-code" stroke="#FFFFFF" stroke-width="4.5" stroke-linecap="round" stroke-linejoin="round" fill="none" opacity="0.98">
    <path d="M 774.0,1002.0 l -16,-14 l 16,-14 M 818.0,1002.0 l 16,-14 l -16,-14 M 800.0,976.0 l -16,52"/>
  </g>
</g>
<g id="piece-r4c4" class="piece role-base base" data-role="base" style="transform-box:fill-box;transform-origin:center;">
  <path d="M 894.00,903.00 L 939.08,903.00 C 954.76,903.00 950.84,929.88 992.00,931.00 C 1041.00,929.88 1037.08,903.00 1052.76,903.00 L 1090.00,903.00 L 1090.00,951.48 C 1090.00,967.64 1058.32,963.60 1057.00,1004.00 C 1058.32,1056.52 1090.00,1052.48 1090.00,1068.64 L 1090.00,1105.00 L 894.00,1105.00 L 894.00,1062.58 C 894.00,1046.42 863.28,1050.46 862.00,1004.00 C 863.28,959.56 894.00,963.60 894.00,947.44 L 894.00,903.00 Z" fill="#55abf3" fill-opacity="0.9" stroke="#F3F7FF" stroke-width="5" stroke-linejoin="round" stroke-linecap="round"/>
</g>
<g id="piece-r4c5" class="piece role-base base" data-role="base" style="transform-box:fill-box;transform-origin:center;">
  <path d="M 1090.00,903.00 L 1139.00,903.00 C 1154.68,903.00 1150.76,926.04 1188.00,927.00 C 1229.16,926.04 1225.24,903.00 1240.92,903.00 L 1286.00,903.00 L 1286.00,1105.00 L 1090.00,1105.00 L 1090.00,1068.64 C 1090.00,1052.48 1058.32,1056.52 1057.00,1004.00 C 1058.32,963.60 1090.00,967.64 1090.00,951.48 L 1090.00,903.00 Z" fill="#57b5f4" fill-opacity="0.9" stroke="#F3F7FF" stroke-width="5" stroke-linejoin="round" stroke-linecap="round"/>
</g>
</g>
<path id="brain-outline" d="M 701.4,1176.5 L 692.9,1175.9 L 684.4,1174.0 L 675.9,1171.2 L 667.3,1167.8 L 658.8,1164.1 L 650.2,1160.4 L 641.6,1156.9 L 633.0,1154.0 L 624.4,1151.6 L 615.7,1149.7 L 606.9,1148.1 L 598.1,1146.9 L 589.1,1145.9 L 580.1,1145.2 L 571.0,1144.6 L 561.8,1144.1 L 552.5,1143.7 L 543.2,1143.3 L 533.9,1142.9 L 524.5,1142.3 L 515.2,1141.6 L 505.9,1140.7 L 496.7,1139.5 L 487.5,1138.0 L 478.4,1136.1 L 469.5,1133.7 L 460.6,1130.9 L 451.9,1127.6 L 443.3,1123.7 L 434.9,1119.3 L 426.8,1114.5 L 418.8,1109.2 L 411.2,1103.6 L 403.9,1097.6 L 396.9,1091.3 L 390.2,1084.8 L 383.7,1078.1 L 377.4,1071.4 L 371.2,1064.5 L 365.0,1057.7 L 358.9,1051.0 L 352.8,1044.4 L 346.5,1038.0 L 340.0,1031.9 L 333.3,1026.1 L 326.2,1020.6 L 318.9,1015.4 L 311.3,1010.3 L 303.6,1005.4 L 295.7,1000.5 L 287.9,995.5 L 280.0,990.4 L 272.1,985.1 L 264.3,979.7 L 256.7,974.1 L 249.2,968.3 L 241.9,962.3 L 234.8,956.1 L 228.0,949.7 L 221.5,943.0 L 215.3,936.0 L 209.5,928.8 L 204.2,921.3 L 199.2,913.5 L 194.6,905.4 L 190.4,897.2 L 186.4,888.8 L 182.6,880.3 L 179.0,871.7 L 175.5,863.1 L 172.1,854.4 L 168.7,845.8 L 165.4,837.2 L 161.9,828.7 L 158.4,820.3 L 154.7,812.1 L 150.8,804.0 L 146.6,796.0 L 142.1,788.1 L 137.5,780.2 L 132.7,772.3 L 127.8,764.4 L 123.0,756.4 L 118.3,748.3 L 113.8,740.0 L 109.7,731.6 L 105.9,723.0 L 102.6,714.3 L 99.8,705.4 L 97.4,696.3 L 95.6,687.2 L 94.4,678.1 L 93.6,668.8 L 93.4,659.6 L 93.6,650.3 L 94.0,641.1 L 94.7,631.8 L 95.5,622.6 L 96.3,613.4 L 97.2,604.3 L 97.9,595.2 L 98.6,586.1 L 99.1,577.0 L 99.4,567.8 L 99.4,558.7 L 99.1,549.4 L 98.5,540.1 L 97.9,530.7 L 97.2,521.3 L 96.6,511.9 L 96.3,502.6 L 96.5,493.3 L 97.1,484.1 L 98.2,475.0 L 99.8,465.9 L 101.9,457.0 L 104.3,448.1 L 107.2,439.3 L 110.3,430.6 L 113.6,421.9 L 117.3,413.3 L 121.0,404.8 L 124.9,396.4 L 129.0,388.0 L 133.0,379.7 L 137.1,371.5 L 141.1,363.2 L 145.1,354.9 L 148.9,346.6 L 152.6,338.2 L 156.1,329.6 L 159.4,320.9 L 162.7,312.1 L 166.0,303.4 L 169.5,294.7 L 173.3,286.3 L 177.6,278.1 L 182.2,270.2 L 187.4,262.6 L 192.9,255.3 L 198.8,248.2 L 205.0,241.5 L 211.6,235.0 L 218.5,228.7 L 225.5,222.8 L 232.9,217.0 L 240.4,211.5 L 248.0,206.3 L 255.8,201.2 L 263.7,196.3 L 271.6,191.4 L 279.5,186.4 L 287.3,181.3 L 295.0,176.1 L 302.6,170.6 L 310.1,164.9 L 317.6,159.3 L 325.2,153.8 L 332.8,148.5 L 340.6,143.5 L 348.6,139.0 L 356.8,134.8 L 365.2,131.0 L 373.7,127.5 L 382.3,124.3 L 391.0,121.4 L 399.8,118.7 L 408.7,116.3 L 417.6,114.1 L 426.6,112.1 L 435.6,110.2 L 444.6,108.5 L 453.6,106.8 L 462.5,105.2 L 471.5,103.5 L 480.4,101.6 L 489.3,99.4 L 498.2,97.0 L 507.1,94.2 L 516.0,91.3 L 525.0,88.4 L 533.9,85.6 L 542.9,83.0 L 552.0,80.8 L 561.1,79.1 L 570.2,78.0 L 579.3,77.6 L 588.5,77.8 L 597.7,78.5 L 607.0,79.6 L 616.2,80.9 L 625.5,82.6 L 634.7,84.3 L 644.0,86.1 L 653.2,87.9 L 662.4,89.5 L 671.5,90.9 L 680.7,92.1 L 689.7,92.8 L 698.8,93.0 L 707.7,92.8 L 716.7,92.1 L 725.6,91.1 L 734.6,89.8 L 743.5,88.3 L 752.6,86.6 L 761.7,84.9 L 770.9,83.3 L 780.1,81.7 L 789.4,80.3 L 798.7,79.2 L 808.0,78.5 L 817.3,78.1 L 826.6,78.4 L 835.8,79.2 L 844.9,80.6 L 854.0,82.5 L 863.0,84.8 L 871.9,87.3 L 880.8,90.1 L 889.6,93.0 L 898.4,95.9 L 907.2,98.6 L 915.9,101.2 L 924.8,103.6 L 933.6,105.6 L 942.6,107.5 L 951.6,109.1 L 960.7,110.5 L 969.9,112.0 L 979.0,113.4 L 988.1,115.0 L 997.2,116.9 L 1006.1,119.1 L 1014.9,121.7 L 1023.5,124.9 L 1032.0,128.6 L 1040.3,132.7 L 1048.4,137.2 L 1056.3,142.1 L 1064.2,147.2 L 1071.8,152.5 L 1079.4,158.0 L 1087.0,163.5 L 1094.5,169.0 L 1102.0,174.4 L 1109.7,179.7 L 1117.4,184.8 L 1125.2,189.8 L 1133.1,194.7 L 1141.0,199.6 L 1148.8,204.6 L 1156.7,209.6 L 1164.4,214.9 L 1172.0,220.3 L 1179.3,226.0 L 1186.4,232.0 L 1193.2,238.3 L 1199.5,245.0 L 1205.5,252.1 L 1210.9,259.6 L 1216.0,267.4 L 1220.7,275.4 L 1224.9,283.6 L 1228.8,292.1 L 1232.4,300.7 L 1235.7,309.3 L 1239.0,318.0 L 1242.3,326.6 L 1245.6,335.2 L 1249.1,343.6 L 1252.8,352.0 L 1256.7,360.2 L 1260.7,368.5 L 1264.8,376.6 L 1269.0,384.8 L 1273.3,393.0 L 1277.6,401.2 L 1281.8,409.5 L 1285.8,417.9 L 1289.4,426.5 L 1292.7,435.1 L 1295.6,444.0 L 1297.9,452.9 L 1299.8,462.0 L 1301.3,471.2 L 1302.3,480.5 L 1302.9,489.8 L 1303.1,499.1 L 1303.0,508.4 L 1302.7,517.8 L 1302.2,527.1 L 1301.7,536.4 L 1301.2,545.7 L 1300.9,554.9 L 1300.8,564.1 L 1301.0,573.3 L 1301.4,582.4 L 1302.0,591.6 L 1302.7,600.7 L 1303.5,609.9 L 1304.3,619.2 L 1305.1,628.4 L 1305.8,637.7 L 1306.4,647.0 L 1306.6,656.3 L 1306.5,665.6 L 1306.0,674.8 L 1304.9,684.0 L 1303.3,693.1 L 1301.1,702.1 L 1298.4,711.0 L 1295.3,719.8 L 1291.7,728.5 L 1287.7,736.9 L 1283.3,745.2 L 1278.7,753.4 L 1274.0,761.5 L 1269.2,769.4 L 1264.4,777.4 L 1259.8,785.4 L 1255.4,793.3 L 1251.1,801.4 L 1247.1,809.5 L 1243.1,817.7 L 1239.4,826.0 L 1235.8,834.5 L 1232.3,843.0 L 1228.8,851.7 L 1225.4,860.3 L 1221.9,869.0 L 1218.4,877.6 L 1214.7,886.1 L 1210.8,894.6 L 1206.6,902.9 L 1202.2,911.0 L 1197.4,918.8 L 1192.3,926.5 L 1186.7,933.8 L 1180.7,940.9 L 1174.3,947.6 L 1167.6,954.2 L 1160.6,960.5 L 1153.3,966.5 L 1145.8,972.3 L 1138.2,978.0 L 1130.4,983.4 L 1122.6,988.7 L 1114.7,993.8 L 1106.8,998.7 L 1098.9,1003.6 L 1091.2,1008.5 L 1083.5,1013.5 L 1076.1,1018.7 L 1069.0,1024.1 L 1062.1,1029.8 L 1055.5,1036.0 L 1049.2,1042.4 L 1043.0,1049.0 L 1036.9,1055.8 L 1030.8,1062.6 L 1024.6,1069.5 L 1018.3,1076.3 L 1011.9,1082.9 L 1005.2,1089.3 L 998.3,1095.5 L 991.1,1101.4 L 983.5,1106.8 L 975.7,1111.9 L 967.6,1116.7 L 959.3,1121.1 L 950.8,1125.1 L 942.2,1128.9 L 933.3,1132.2 L 924.4,1135.3 L 915.4,1137.9 L 906.2,1140.1 L 897.0,1141.9 L 887.7,1143.2 L 878.4,1144.0 L 869.1,1144.4 L 859.8,1144.5 L 850.4,1144.4 L 841.2,1144.2 L 831.9,1144.0 L 822.8,1144.1 L 813.7,1144.4 L 804.7,1145.2 L 795.9,1146.4 L 787.1,1148.1 L 778.4,1150.3 L 769.8,1152.9 L 761.2,1155.9 L 752.6,1159.4 L 744.1,1163.2 L 735.5,1167.1 L 727.0,1170.7 L 718.5,1173.6 L 710.0,1175.7 Z" fill="none" stroke="#2D3194" stroke-width="24" stroke-linejoin="round" stroke-linecap="round"/>
<path id="brain-seam" d="M 700 128 C 690 260 690 390 700 520 C 710 650 710 810 700 940 C 695 1005 695 1058 700 1105"
    fill="none" stroke="#2D3194" stroke-width="34" stroke-linecap="round" stroke-linejoin="round"/>
</svg>